<svg id="svg" version="1.1" xmlns="http://www.w3.org/2000/svg" xmlns:xlink="http://www.w3.org/1999/xlink" width="400" height="400" viewBox="0, 0, 400,400"><g id="svgg"><path id="path0" d="M0.000 200.000 L 0.000 400.000 200.000 400.000 L 400.000 400.000 400.000 200.000 L 400.000 0.000 200.000 0.000 L 0.000 0.000 0.000 200.000 M200.632 86.876 C 207.755 90.193,207.585 100.456,200.347 104.124 L 198.438 105.091 198.419 114.948 C 198.387 132.510,198.382 154.411,198.410 157.687 L 198.438 160.882 203.418 162.842 C 209.992 165.428,216.191 168.160,218.325 169.410 C 219.996 170.389,220.065 170.397,220.584 169.683 C 220.878 169.277,221.575 168.370,222.133 167.667 C 223.029 166.538,223.871 165.230,226.593 160.742 C 228.601 157.432,229.182 141.735,228.912 98.145 L 228.906 97.266 236.737 97.266 L 244.568 97.266 244.432 126.855 C 244.300 155.795,244.278 156.516,243.445 159.661 C 241.618 166.557,238.757 172.408,234.801 177.338 L 232.842 179.779 235.298 182.956 C 240.035 189.082,242.876 194.402,245.282 201.651 C 246.653 205.783,246.609 206.817,245.042 207.210 C 243.621 207.567,243.233 207.033,241.817 202.765 C 239.576 196.016,236.472 190.348,232.064 184.961 C 225.703 177.187,220.735 174.003,205.024 167.632 C 191.325 162.077,186.959 159.593,182.168 154.625 C 175.131 147.330,173.384 137.837,177.633 129.985 C 180.173 125.293,189.063 119.296,190.235 121.486 C 191.212 123.311,190.761 124.105,187.885 125.616 C 174.184 132.816,176.640 148.250,193.066 158.164 L 194.531 159.048 194.531 132.049 L 194.531 105.050 192.676 104.257 C 185.020 100.982,184.833 90.094,192.374 86.668 C 194.665 85.628,198.138 85.715,200.632 86.876 M193.442 90.679 C 189.968 92.904,190.270 98.685,193.941 100.219 C 196.373 101.235,198.904 100.746,200.425 98.966 C 204.515 94.180,198.719 87.301,193.442 90.679 M164.065 124.902 C 164.067 153.563,164.158 155.410,165.756 159.366 C 169.498 168.632,177.279 175.135,187.695 177.703 L 190.430 178.377 190.535 186.510 L 190.641 194.642 188.769 194.420 C 168.641 192.036,151.267 174.921,148.842 155.088 C 148.599 153.095,148.438 140.934,148.438 124.522 L 148.438 97.266 156.250 97.266 L 164.063 97.266 164.065 124.902 M204.417 136.426 C 205.898 138.254,211.859 147.738,216.531 155.697 C 219.510 160.772,220.099 162.589,218.913 163.044 C 217.526 163.577,216.848 163.232,215.728 161.426 C 201.213 138.024,201.625 138.788,202.120 136.147 C 202.454 134.367,202.783 134.407,204.417 136.426 M196.584 169.737 C 198.529 171.059,198.436 169.837,198.333 192.578 L 198.242 212.695 197.317 214.648 L 196.391 216.602 195.559 214.844 C 194.692 213.013,193.981 168.750,194.819 168.750 C 194.991 168.750,195.785 169.194,196.584 169.737 M84.288 170.921 C 85.360 171.671,85.426 173.266,84.408 173.811 C 83.435 174.331,78.269 174.043,77.527 173.427 C 74.924 171.267,81.371 168.877,84.288 170.921 M101.866 170.921 C 102.980 171.701,102.976 172.872,101.855 173.602 C 100.607 174.415,95.745 174.378,94.828 173.548 C 92.974 171.870,94.712 170.313,98.438 170.313 C 100.123 170.313,101.295 170.520,101.866 170.921 M118.741 171.085 C 120.916 173.260,116.170 175.298,112.330 173.838 C 111.113 173.375,110.908 171.377,112.012 170.734 C 113.304 169.982,117.876 170.220,118.741 171.085 M281.250 171.094 C 282.986 172.830,281.480 174.219,277.863 174.219 C 274.305 174.219,272.697 172.671,274.442 170.926 C 275.414 169.954,280.229 170.072,281.250 171.094 M298.351 170.921 C 301.046 172.809,296.337 175.093,292.089 173.958 C 290.478 173.527,290.383 171.328,291.949 170.695 C 293.385 170.115,297.403 170.257,298.351 170.921 M315.260 170.717 C 316.270 171.257,316.280 173.268,315.276 173.806 C 313.070 174.986,307.813 173.874,307.813 172.227 C 307.813 170.577,313.024 169.520,315.260 170.717 M216.662 177.499 C 221.819 180.608,226.228 183.987,226.092 184.727 C 225.997 185.239,222.700 187.642,219.295 189.680 C 218.625 190.081,218.633 190.157,219.451 191.198 C 222.038 194.487,218.670 196.102,215.961 192.871 C 215.196 191.958,211.904 188.322,208.646 184.791 C 205.388 181.261,202.857 178.259,203.021 178.122 C 203.186 177.984,204.718 177.554,206.426 177.165 C 208.134 176.777,210.068 176.225,210.723 175.940 C 212.551 175.144,212.912 175.239,216.662 177.499 M206.312 188.766 C 210.451 193.380,210.414 193.505,204.785 194.004 L 201.953 194.255 201.953 189.267 C 201.953 183.456,201.587 183.499,206.312 188.766 M60.938 236.133 C 61.127 254.278,61.160 254.941,61.972 256.699 C 65.702 264.766,76.829 265.947,81.551 258.776 C 83.494 255.825,83.533 255.400,83.690 235.742 L 83.837 217.383 89.966 217.275 L 96.094 217.168 96.087 236.221 C 96.079 259.702,95.850 261.159,91.233 267.158 C 80.847 280.656,58.427 278.167,50.798 262.670 C 48.574 258.152,48.452 256.782,48.444 236.258 L 48.438 217.632 49.316 217.458 C 49.800 217.362,52.568 217.306,55.469 217.333 L 60.742 217.383 60.938 236.133 M137.880 217.956 C 154.585 222.228,157.849 245.069,142.796 252.355 C 141.034 253.208,139.370 253.906,139.099 253.906 C 138.250 253.906,138.642 254.346,148.438 264.400 C 153.701 269.802,158.066 274.397,158.138 274.611 C 158.218 274.850,156.906 275.000,154.733 275.000 L 151.197 275.000 149.575 277.148 C 147.407 280.021,148.014 280.373,139.017 271.026 C 134.638 266.476,129.912 261.598,128.516 260.186 L 125.977 257.617 125.841 251.135 L 125.705 244.653 129.835 244.419 C 138.189 243.946,142.143 239.591,139.500 233.773 C 137.880 230.206,135.621 229.302,128.320 229.299 L 123.242 229.297 123.179 245.996 C 123.145 255.181,123.101 265.464,123.082 268.848 L 123.047 275.000 116.992 275.000 L 110.938 275.000 110.938 246.354 C 110.938 230.599,111.069 217.573,111.230 217.407 C 111.682 216.942,135.862 217.440,137.880 217.956 M191.225 217.412 C 191.662 217.529,192.609 218.488,193.328 219.541 C 195.873 223.271,196.205 223.306,198.734 220.109 L 200.398 218.006 201.961 218.557 C 212.470 222.265,215.998 236.667,208.332 244.571 L 206.589 246.368 208.505 247.972 C 216.546 254.705,214.337 268.785,204.536 273.272 C 201.098 274.847,199.005 275.016,184.357 274.907 L 170.508 274.805 170.405 263.061 L 170.301 251.317 172.471 249.779 C 173.664 248.934,176.482 246.885,178.733 245.225 C 184.159 241.225,183.670 241.406,189.018 241.406 C 197.890 241.406,201.540 239.127,200.609 234.166 C 199.908 230.431,197.120 229.302,188.587 229.299 L 182.448 229.297 182.337 233.488 L 182.227 237.680 176.758 241.664 C 173.750 243.856,171.069 245.661,170.801 245.676 C 170.272 245.705,170.048 217.973,170.573 217.448 C 170.883 217.137,190.078 217.104,191.225 217.412 M255.831 218.066 C 256.133 218.550,257.068 220.615,257.908 222.656 C 266.354 243.174,278.516 273.719,278.516 274.414 C 278.516 274.940,277.709 275.006,272.363 274.912 L 266.211 274.805 263.798 268.750 L 261.385 262.695 253.023 262.590 C 241.676 262.448,241.930 262.377,240.616 266.026 C 240.037 267.632,238.995 270.308,238.300 271.973 L 237.036 275.000 230.844 275.000 L 224.651 275.000 225.376 272.949 C 225.774 271.821,226.847 268.965,227.760 266.602 C 228.673 264.238,230.079 260.547,230.885 258.398 C 231.690 256.250,233.181 252.383,234.197 249.805 C 236.752 243.324,238.527 238.703,240.050 234.570 C 241.325 231.113,242.593 227.878,244.186 224.023 C 244.630 222.949,245.370 221.067,245.831 219.841 C 246.787 217.301,246.698 217.339,251.957 217.246 C 255.013 217.192,255.325 217.258,255.831 218.066 M306.116 225.867 C 323.012 243.054,328.476 248.656,329.651 250.000 L 330.847 251.367 330.853 234.480 L 330.859 217.593 331.772 217.364 C 332.274 217.238,334.955 217.191,337.729 217.259 L 342.773 217.383 342.873 248.416 C 342.928 265.484,342.831 279.591,342.657 279.765 C 342.314 280.108,341.527 279.317,318.934 255.923 C 302.366 238.768,303.262 239.465,303.164 243.652 L 303.125 245.313 301.270 245.364 C 300.249 245.393,297.656 245.437,295.508 245.462 L 291.602 245.508 291.406 231.510 C 291.299 223.811,291.284 217.439,291.374 217.350 C 291.463 217.261,292.897 217.188,294.560 217.188 L 297.584 217.188 306.116 225.867 M251.462 238.134 C 251.256 238.473,246.484 251.096,246.484 251.301 C 246.484 251.359,248.770 251.455,251.563 251.515 C 257.597 251.642,257.302 252.208,254.725 245.452 C 252.193 238.811,251.709 237.727,251.462 238.134 M303.234 261.328 C 303.187 267.666,303.143 273.335,303.136 273.926 L 303.125 275.000 297.266 275.000 L 291.406 275.000 291.406 262.295 L 291.406 249.589 297.363 249.697 L 303.320 249.805 303.234 261.328 M183.301 252.730 C 182.449 253.089,182.422 253.267,182.422 258.581 L 182.422 264.063 188.694 264.063 C 196.131 264.063,198.000 263.687,199.590 261.876 C 201.896 259.250,201.380 255.219,198.509 253.434 C 196.930 252.452,185.246 251.911,183.301 252.730 M271.730 294.563 C 273.284 295.523,273.290 295.566,272.091 297.034 L 271.163 298.169 269.746 297.496 C 268.040 296.687,267.272 296.789,266.517 297.928 C 265.962 298.765,266.012 298.805,268.619 299.599 C 274.328 301.338,275.352 306.400,270.413 308.463 C 267.385 309.728,261.045 307.815,262.073 305.946 C 263.239 303.826,263.397 303.757,265.057 304.647 C 266.996 305.686,268.592 305.712,269.127 304.713 C 269.713 303.617,269.769 303.664,266.823 302.769 C 263.716 301.826,262.500 300.641,262.500 298.561 C 262.500 294.246,267.625 292.026,271.730 294.563 M134.375 295.263 L 134.375 296.776 132.413 296.964 C 129.817 297.214,129.948 296.862,130.039 303.315 L 130.118 308.984 128.155 308.984 L 126.192 308.984 126.084 303.027 L 125.977 297.070 123.730 296.953 L 121.484 296.836 121.484 295.293 L 121.484 293.750 127.930 293.750 L 134.375 293.750 134.375 295.263 M145.232 296.777 L 145.347 299.609 148.650 299.609 L 151.953 299.609 151.953 296.680 L 151.953 293.750 153.711 293.750 L 155.469 293.750 155.469 301.367 L 155.469 308.984 153.711 308.984 L 151.953 308.984 151.953 305.859 L 151.953 302.734 148.633 302.734 L 145.313 302.734 145.313 305.859 L 145.313 308.984 143.359 308.984 L 141.406 308.984 141.406 301.346 L 141.406 293.707 143.262 293.826 L 145.117 293.945 145.232 296.777 M172.641 294.328 C 175.863 295.994,176.433 301.456,173.554 303.068 C 172.957 303.402,173.042 303.688,174.386 305.865 C 176.033 308.533,175.917 308.967,173.553 308.978 C 172.270 308.985,172.080 308.808,170.188 305.859 C 168.624 303.422,167.256 303.716,167.110 306.519 L 166.992 308.789 165.137 308.908 L 163.281 309.027 163.281 301.389 L 163.281 293.750 167.402 293.750 C 170.277 293.750,171.861 293.925,172.641 294.328 M193.284 295.375 L 193.164 297.000 189.955 296.913 C 186.825 296.828,186.740 296.850,186.500 297.805 C 186.116 299.335,186.568 299.609,189.476 299.609 L 192.188 299.609 192.188 301.172 L 192.188 302.734 189.453 302.734 L 186.719 302.734 186.719 304.102 L 186.719 305.469 190.039 305.469 L 193.359 305.469 193.359 307.227 L 193.359 308.984 188.086 308.984 L 182.813 308.984 182.813 301.367 L 182.813 293.750 188.108 293.750 L 193.404 293.750 193.284 295.375 M211.832 300.894 C 215.399 309.356,215.343 308.984,213.055 308.984 C 211.330 308.984,211.243 308.928,210.652 307.422 L 210.038 305.859 207.175 305.859 L 204.313 305.859 203.516 307.422 C 202.738 308.946,199.219 309.912,199.219 308.602 C 199.219 308.198,201.662 301.942,203.493 297.656 C 204.090 296.260,204.685 294.810,204.816 294.434 C 204.998 293.910,205.494 293.750,206.937 293.750 L 208.820 293.750 211.832 300.894 M231.525 294.994 C 235.573 297.673,235.812 304.221,231.968 307.152 C 230.303 308.422,227.976 308.963,224.121 308.975 L 221.094 308.984 221.094 301.325 L 221.094 293.666 225.518 293.806 C 229.538 293.934,230.086 294.042,231.525 294.994 M252.375 295.117 C 259.790 300.361,255.103 308.984,244.837 308.984 L 241.797 308.984 241.797 301.334 L 241.797 293.683 246.257 293.814 C 250.483 293.938,250.804 294.007,252.375 295.117 M167.094 298.535 C 166.858 300.766,166.989 300.900,169.200 300.687 C 171.344 300.481,171.291 300.510,171.648 299.347 C 172.026 298.114,170.558 296.875,168.717 296.875 C 167.302 296.875,167.266 296.912,167.094 298.535 M224.952 298.145 C 224.869 299.693,224.864 300.923,224.933 303.276 L 225.000 305.575 226.749 305.335 C 230.984 304.755,232.596 300.750,229.607 298.235 C 228.003 296.884,225.024 296.827,224.952 298.145 M245.703 301.136 C 245.703 305.562,245.822 305.753,248.289 305.290 C 253.380 304.335,253.073 297.780,247.916 297.352 L 245.703 297.169 245.703 301.136 M206.091 300.656 C 205.749 301.661,205.469 302.539,205.469 302.609 C 205.469 302.678,206.156 302.734,206.995 302.734 L 208.522 302.734 207.897 300.781 C 207.125 298.365,206.878 298.348,206.091 300.656 " stroke="none" fill="#211f20" fill-rule="evenodd"></path><path id="path1" d="M193.804 86.363 C 185.286 88.962,184.633 101.014,192.841 104.148 L 194.531 104.794 194.569 116.948 C 194.631 136.774,194.507 158.748,194.333 158.922 C 194.020 159.236,188.264 155.396,186.146 153.460 C 176.061 144.242,176.823 130.702,187.723 125.437 C 190.080 124.299,190.572 123.729,190.324 122.428 C 190.026 120.871,189.263 120.876,186.071 122.454 C 176.477 127.195,172.870 137.762,177.511 147.533 C 181.766 156.493,187.754 160.642,207.854 168.558 C 226.710 175.983,236.429 185.805,242.186 203.255 L 243.446 207.074 244.672 206.955 C 245.717 206.854,245.915 206.662,246.014 205.662 C 246.383 201.898,238.065 185.267,233.816 181.276 C 232.504 180.043,232.498 180.070,234.750 177.132 C 243.918 165.169,244.532 161.393,244.146 119.336 L 243.945 97.461 236.523 97.461 L 229.102 97.461 228.906 126.563 C 228.711 155.640,228.710 155.666,227.820 158.129 C 226.878 160.735,223.691 166.123,221.819 168.275 C 221.205 168.981,220.703 169.728,220.703 169.935 C 220.703 170.404,219.263 170.436,218.977 169.974 C 218.720 169.557,210.615 165.967,203.516 163.124 L 198.242 161.013 198.144 132.948 L 198.045 104.883 199.819 104.154 C 210.514 99.761,204.846 82.995,193.804 86.363 M198.587 89.995 C 202.912 91.802,203.006 98.168,198.739 100.317 C 193.384 103.015,188.212 96.360,192.086 91.757 C 193.887 89.616,196.189 88.993,198.587 89.995 M148.995 97.785 C 148.272 99.668,149.095 157.719,149.882 160.352 C 154.414 175.522,165.345 187.091,179.831 192.047 C 182.367 192.914,188.881 194.531,189.840 194.531 C 190.093 194.531,190.234 191.660,190.234 186.531 L 190.234 178.531 189.160 178.311 C 180.061 176.448,172.379 171.299,167.861 164.034 C 163.822 157.540,163.702 156.367,163.685 123.190 L 163.672 97.747 162.793 97.512 C 160.910 97.007,149.204 97.239,148.995 97.785 M202.344 137.380 C 202.344 139.374,202.539 139.907,204.243 142.555 C 206.758 146.465,214.067 158.300,215.419 160.653 C 216.686 162.858,217.629 163.491,218.750 162.891 C 220.227 162.100,219.910 161.463,210.216 145.703 C 203.523 134.822,202.344 133.575,202.344 137.380 M194.655 190.994 C 194.860 211.530,194.919 212.948,195.632 214.529 L 196.391 216.211 197.222 214.389 C 198.042 212.594,198.052 212.263,197.953 191.748 L 197.852 170.929 196.524 170.035 C 195.794 169.543,195.026 169.141,194.817 169.141 C 194.573 169.141,194.515 176.947,194.655 190.994 M77.346 171.286 C 75.981 172.931,77.417 173.869,81.110 173.746 C 84.795 173.623,85.831 173.034,84.918 171.582 C 84.307 170.611,78.107 170.369,77.346 171.286 M94.940 171.268 C 93.561 172.929,94.518 173.626,98.342 173.745 C 102.269 173.867,103.740 172.971,102.353 171.301 C 101.665 170.471,95.623 170.444,94.940 171.268 M111.811 171.158 C 110.174 172.795,111.711 173.889,115.449 173.748 C 118.765 173.622,119.783 172.983,118.902 171.582 C 118.358 170.717,112.596 170.372,111.811 171.158 M274.227 171.469 C 273.283 173.234,274.288 173.872,277.813 173.746 C 281.270 173.622,282.296 173.004,281.402 171.582 C 280.702 170.469,274.812 170.376,274.227 171.469 M291.484 171.172 C 289.919 172.737,291.343 173.828,294.952 173.828 C 298.294 173.828,299.092 173.368,298.669 171.685 C 298.389 170.570,292.506 170.150,291.484 171.172 M308.137 171.668 C 307.368 173.357,308.204 173.828,311.970 173.828 C 315.547 173.828,316.937 172.870,315.635 171.301 C 314.697 170.171,308.685 170.466,308.137 171.668 M211.611 175.818 C 211.229 176.040,209.220 176.652,207.146 177.179 C 205.072 177.705,203.292 178.218,203.191 178.319 C 203.090 178.420,204.927 180.571,207.273 183.099 C 209.619 185.627,212.919 189.233,214.606 191.113 C 217.855 194.733,219.077 195.330,219.939 193.718 C 220.296 193.050,220.197 192.637,219.380 191.403 L 218.387 189.902 221.424 188.121 C 223.095 187.142,224.865 185.911,225.358 185.387 L 226.254 184.433 223.177 182.151 C 220.521 180.182,212.869 175.368,212.449 175.403 C 212.370 175.409,211.993 175.596,211.611 175.818 M202.308 185.352 C 202.242 186.217,202.241 187.127,202.302 191.353 L 202.344 194.229 204.102 193.990 C 205.068 193.858,206.650 193.642,207.617 193.510 C 209.809 193.212,209.804 193.121,207.440 190.352 C 202.912 185.049,202.371 184.522,202.308 185.352 M48.591 218.133 C 48.474 218.438,48.439 227.183,48.514 237.566 L 48.649 256.445 49.723 259.503 C 57.400 281.373,88.693 281.141,94.988 259.168 C 95.861 256.119,95.880 255.662,95.889 236.914 L 95.898 217.773 89.941 217.666 L 83.984 217.558 83.984 235.064 C 83.984 254.561,83.879 255.564,81.454 259.235 C 76.849 266.203,65.328 264.640,61.673 256.551 L 60.742 254.492 60.623 236.035 L 60.505 217.578 54.654 217.578 C 49.961 217.578,48.762 217.688,48.591 218.133 M111.251 229.171 C 111.124 248.383,111.191 274.212,111.369 274.390 C 111.629 274.650,121.897 274.967,122.505 274.734 C 122.959 274.560,123.047 270.801,123.047 251.662 L 123.047 228.799 128.613 228.994 C 137.686 229.313,140.541 231.380,140.160 237.356 C 139.854 242.169,137.004 244.240,130.371 244.471 L 126.172 244.618 126.185 251.117 L 126.198 257.617 136.865 268.540 L 147.531 279.464 149.254 277.233 C 151.087 274.860,150.949 274.914,155.173 274.927 C 158.608 274.939,158.511 274.790,148.661 264.888 C 139.316 255.495,137.871 253.906,138.675 253.906 C 139.964 253.906,145.141 251.009,147.007 249.244 C 154.982 241.702,153.439 227.175,144.005 220.967 C 139.345 217.900,138.818 217.812,124.316 217.659 L 111.328 217.522 111.251 229.171 M170.703 231.687 L 170.703 245.796 171.973 244.844 C 172.671 244.321,175.047 242.611,177.253 241.045 C 182.413 237.382,182.422 237.368,182.422 232.964 L 182.422 229.384 183.804 229.124 C 186.459 228.626,195.752 229.306,197.461 230.124 C 201.994 232.291,201.890 238.197,197.277 240.527 C 195.718 241.315,194.966 241.406,190.023 241.406 C 183.696 241.406,185.418 240.671,175.977 247.407 L 170.898 251.030 170.796 262.917 L 170.694 274.805 185.444 274.778 C 201.404 274.748,201.889 274.694,205.608 272.514 C 214.376 267.376,215.828 254.705,208.401 248.157 L 206.299 246.304 208.010 244.664 C 215.404 237.580,212.884 224.210,203.262 219.473 L 200.690 218.207 198.685 220.443 C 196.165 223.252,195.795 223.228,193.511 220.117 L 191.646 217.578 181.175 217.578 L 170.703 217.578 170.703 231.687 M245.380 221.387 C 244.489 223.481,243.301 226.426,242.741 227.930 C 242.181 229.434,241.053 232.422,240.234 234.570 C 239.416 236.719,238.287 239.707,237.724 241.211 C 236.634 244.125,234.702 249.000,232.616 254.102 C 231.913 255.820,231.209 257.666,231.052 258.203 C 230.895 258.740,229.463 262.570,227.870 266.714 C 226.276 270.858,225.073 274.411,225.195 274.609 C 225.321 274.813,227.423 274.891,230.037 274.789 C 232.577 274.690,235.184 274.609,235.830 274.609 C 236.975 274.609,237.057 274.477,239.033 269.434 C 240.148 266.587,241.223 263.862,241.420 263.379 C 241.780 262.500,241.781 262.500,251.662 262.500 L 261.544 262.500 263.885 268.457 L 266.226 274.414 272.176 274.522 C 277.115 274.611,278.125 274.535,278.125 274.073 C 278.125 273.228,258.214 223.695,255.847 218.652 C 255.344 217.579,255.340 217.578,251.172 217.578 L 247.000 217.578 245.380 221.387 M291.406 231.445 L 291.406 245.313 297.266 245.313 L 303.125 245.313 303.125 242.773 C 303.125 241.377,303.284 240.234,303.479 240.234 C 303.869 240.234,315.075 251.557,330.735 267.773 C 336.336 273.574,341.292 278.655,341.748 279.064 L 342.578 279.809 342.578 248.683 L 342.578 217.557 336.816 217.665 L 331.055 217.773 330.859 234.492 L 330.664 251.210 318.151 238.398 C 311.268 231.351,303.899 223.784,301.774 221.582 L 297.911 217.578 294.659 217.578 L 291.406 217.578 291.406 231.445 M254.435 244.167 C 255.863 247.834,257.031 250.998,257.031 251.198 C 257.031 251.406,254.758 251.563,251.758 251.563 C 247.367 251.563,246.484 251.466,246.484 250.986 C 246.484 250.210,251.304 237.519,251.603 237.508 C 251.732 237.504,253.006 240.500,254.435 244.167 M291.406 262.435 L 291.406 274.870 296.191 274.941 C 298.823 274.981,301.460 274.908,302.051 274.780 L 303.125 274.547 303.125 262.274 L 303.125 250.000 297.266 250.000 L 291.406 250.000 291.406 262.435 M197.766 252.879 C 202.283 254.804,202.400 260.995,197.965 263.363 C 196.411 264.192,195.784 264.261,189.355 264.304 L 182.422 264.351 182.422 258.348 L 182.422 252.344 189.466 252.344 C 194.561 252.344,196.857 252.492,197.766 252.879 M121.484 295.313 L 121.484 296.875 123.828 296.875 L 126.172 296.875 126.259 300.098 C 126.307 301.870,126.367 304.287,126.392 305.469 C 126.461 308.678,126.414 308.594,128.125 308.594 L 129.688 308.594 129.688 302.734 L 129.688 296.875 132.031 296.875 L 134.375 296.875 134.375 295.313 L 134.375 293.750 127.930 293.750 L 121.484 293.750 121.484 295.313 M141.797 301.172 L 141.797 308.594 143.359 308.594 L 144.922 308.594 144.968 305.957 C 144.994 304.507,144.994 303.188,144.968 303.027 C 144.943 302.866,145.054 302.727,145.215 302.717 C 145.820 302.683,150.996 302.669,151.465 302.701 C 151.808 302.724,151.953 303.590,151.953 305.622 C 151.953 308.782,152.114 309.002,154.199 308.693 L 155.469 308.505 155.469 301.128 L 155.469 293.750 153.711 293.750 L 151.953 293.750 151.953 296.680 L 151.953 299.609 148.438 299.609 L 144.922 299.609 144.922 296.680 L 144.922 293.750 143.359 293.750 L 141.797 293.750 141.797 301.172 M163.672 301.126 L 163.672 308.503 164.721 308.703 C 166.511 309.045,166.797 308.702,166.797 306.208 L 166.797 303.906 167.981 303.906 C 169.004 303.906,169.364 304.223,170.618 306.227 C 172.295 308.908,172.394 308.973,174.284 308.645 L 175.701 308.398 174.183 305.893 C 172.670 303.397,172.668 303.386,173.483 302.815 C 175.246 301.580,175.799 298.831,174.737 296.592 C 173.760 294.533,171.751 293.769,167.285 293.759 L 163.672 293.750 163.672 301.126 M183.072 296.387 C 182.944 297.837,182.917 301.045,183.012 303.516 C 183.107 305.986,183.189 308.140,183.194 308.301 C 183.199 308.462,185.400 308.594,188.086 308.594 L 192.969 308.594 192.969 307.031 L 192.969 305.469 189.625 305.469 L 186.281 305.469 186.402 304.034 L 186.523 302.599 189.355 302.693 L 192.188 302.787 192.188 301.198 L 192.188 299.609 189.258 299.609 L 186.328 299.609 186.328 298.242 L 186.328 296.875 189.648 296.875 L 192.969 296.875 192.969 295.313 L 192.969 293.750 188.136 293.750 L 183.304 293.750 183.072 296.387 M202.744 299.902 C 201.370 303.286,200.012 306.626,199.727 307.324 L 199.208 308.594 200.978 308.594 C 202.608 308.594,202.797 308.488,203.384 307.257 C 204.108 305.739,204.757 305.482,207.880 305.474 L 210.096 305.469 210.564 306.934 C 211.186 308.881,211.265 308.933,213.155 308.646 L 214.786 308.398 213.217 304.688 C 212.354 302.646,210.941 299.351,210.078 297.363 L 208.509 293.750 206.875 293.750 L 205.242 293.750 202.744 299.902 M221.094 301.119 L 221.094 308.488 222.754 308.705 C 228.566 309.468,233.232 307.266,234.352 303.233 C 235.958 297.450,232.052 293.750,224.343 293.750 L 221.094 293.750 221.094 301.119 M242.188 301.206 L 242.188 308.663 246.417 308.531 C 252.611 308.337,255.469 306.076,255.469 301.367 C 255.469 296.389,251.992 293.757,245.410 293.752 L 242.188 293.750 242.188 301.206 M265.430 294.123 C 263.094 295.089,261.925 298.145,263.055 300.330 C 263.405 301.008,263.731 301.568,263.780 301.574 C 265.186 301.761,269.366 303.540,269.453 303.989 C 269.817 305.863,267.077 306.278,264.842 304.687 L 263.735 303.898 262.922 304.931 C 260.278 308.292,268.316 310.449,271.731 307.295 C 274.709 304.545,273.658 301.428,269.270 299.994 C 266.055 298.944,265.818 298.755,266.384 297.698 C 266.918 296.700,268.737 296.593,270.091 297.480 C 271.074 298.124,273.068 296.295,272.459 295.309 C 271.702 294.084,267.314 293.343,265.430 294.123 M171.261 297.489 C 172.690 298.918,171.873 300.504,169.486 300.933 C 167.247 301.336,166.797 300.977,166.797 298.786 L 166.797 296.875 168.722 296.875 C 169.951 296.875,170.869 297.097,171.261 297.489 M229.542 297.920 C 231.505 299.206,231.696 302.593,229.901 304.280 C 228.735 305.375,225.495 305.872,224.966 305.036 C 224.410 304.158,224.523 297.367,225.098 297.125 C 225.849 296.808,228.594 297.299,229.542 297.920 M248.908 297.281 C 253.659 298.601,252.527 305.469,247.558 305.469 L 245.819 305.469 245.593 301.987 C 245.249 296.677,245.492 296.332,248.908 297.281 M207.779 300.041 C 208.043 300.922,208.353 301.889,208.468 302.189 C 208.628 302.606,208.262 302.734,206.914 302.734 L 205.150 302.734 205.993 300.587 C 207.003 298.014,207.157 297.967,207.779 300.041 " stroke="none" fill="#f6f6f6" fill-rule="evenodd"></path><path id="path2" d="M148.587 106.445 C 148.587 109.023,148.651 110.027,148.727 108.676 C 148.804 107.325,148.803 105.216,148.726 103.989 C 148.648 102.762,148.586 103.867,148.587 106.445 M198.216 115.430 C 198.216 120.801,198.271 123.052,198.338 120.433 C 198.406 117.814,198.406 113.419,198.339 110.667 C 198.272 107.916,198.216 110.059,198.216 115.430 M148.544 114.063 C 148.544 115.029,148.620 115.425,148.713 114.941 C 148.806 114.458,148.806 113.667,148.713 113.184 C 148.620 112.700,148.544 113.096,148.544 114.063 M148.569 119.141 C 148.569 120.752,148.638 121.411,148.722 120.605 C 148.806 119.800,148.806 118.481,148.722 117.676 C 148.638 116.870,148.569 117.529,148.569 119.141 M148.587 127.539 C 148.587 130.117,148.651 131.121,148.727 129.770 C 148.804 128.419,148.803 126.309,148.726 125.082 C 148.648 123.855,148.586 124.961,148.587 127.539 M198.213 135.352 C 198.214 140.078,198.270 141.958,198.339 139.529 C 198.407 137.100,198.407 133.233,198.338 130.935 C 198.269 128.638,198.213 130.625,198.213 135.352 M198.178 150.391 C 198.178 152.002,198.247 152.661,198.331 151.855 C 198.416 151.050,198.416 149.731,198.331 148.926 C 198.247 148.120,198.178 148.779,198.178 150.391 M148.559 150.977 C 148.561 152.266,148.634 152.746,148.721 152.044 C 148.808 151.342,148.806 150.287,148.717 149.700 C 148.627 149.113,148.556 149.688,148.559 150.977 M228.606 151.953 C 228.606 152.705,228.687 153.013,228.785 152.637 C 228.883 152.261,228.883 151.646,228.785 151.270 C 228.687 150.894,228.606 151.201,228.606 151.953 M185.156 152.539 C 185.885 153.291,186.569 153.906,186.677 153.906 C 186.784 153.906,186.276 153.291,185.547 152.539 C 184.818 151.787,184.134 151.172,184.026 151.172 C 183.919 151.172,184.427 151.787,185.156 152.539 M198.172 157.031 C 198.172 158.428,198.243 158.999,198.329 158.301 C 198.416 157.603,198.416 156.460,198.329 155.762 C 198.243 155.063,198.172 155.635,198.172 157.031 M79.395 170.597 C 80.200 170.681,81.519 170.681,82.324 170.597 C 83.130 170.513,82.471 170.444,80.859 170.444 C 79.248 170.444,78.589 170.513,79.395 170.597 M96.769 170.594 C 97.462 170.681,98.693 170.682,99.503 170.598 C 100.313 170.513,99.746 170.442,98.242 170.441 C 96.738 170.439,96.075 170.508,96.769 170.594 M113.379 170.592 C 113.970 170.682,114.937 170.682,115.527 170.592 C 116.118 170.503,115.635 170.430,114.453 170.430 C 113.271 170.430,112.788 170.503,113.379 170.592 M275.879 170.592 C 276.470 170.682,277.437 170.682,278.027 170.592 C 278.618 170.503,278.135 170.430,276.953 170.430 C 275.771 170.430,275.288 170.503,275.879 170.592 M293.644 170.594 C 294.337 170.681,295.568 170.682,296.378 170.598 C 297.188 170.513,296.621 170.442,295.117 170.441 C 293.613 170.439,292.950 170.508,293.644 170.594 M310.456 170.596 C 311.158 170.683,312.213 170.681,312.800 170.592 C 313.387 170.502,312.813 170.431,311.523 170.434 C 310.234 170.436,309.754 170.509,310.456 170.596 M198.200 176.563 C 198.200 179.463,198.261 180.649,198.337 179.199 C 198.412 177.749,198.412 175.376,198.337 173.926 C 198.261 172.476,198.200 173.662,198.200 176.563 M113.775 174.108 C 114.369 174.198,115.248 174.196,115.728 174.103 C 116.208 174.010,115.723 173.937,114.648 173.940 C 113.574 173.943,113.181 174.019,113.775 174.108 M276.855 174.104 C 277.339 174.197,278.130 174.197,278.613 174.104 C 279.097 174.011,278.701 173.935,277.734 173.935 C 276.768 173.935,276.372 174.011,276.855 174.104 M198.153 185.938 C 198.153 186.904,198.229 187.300,198.323 186.816 C 198.416 186.333,198.416 185.542,198.323 185.059 C 198.229 184.575,198.153 184.971,198.153 185.938 M198.212 198.438 C 198.212 202.842,198.269 204.644,198.338 202.441 C 198.408 200.239,198.408 196.636,198.338 194.434 C 198.269 192.231,198.212 194.033,198.212 198.438 M198.159 208.789 C 198.162 209.863,198.237 210.256,198.327 209.663 C 198.417 209.069,198.415 208.190,198.322 207.709 C 198.229 207.229,198.156 207.715,198.159 208.789 M55.246 217.474 C 58.937 217.563,60.542 217.742,60.656 218.077 C 60.745 218.340,60.798 218.291,60.775 217.969 C 60.739 217.479,59.849 217.380,55.366 217.366 L 49.999 217.348 55.246 217.474 M83.848 217.480 C 83.748 217.642,85.539 217.727,87.829 217.671 C 95.510 217.481,96.335 217.336,90.160 217.261 C 86.789 217.221,83.948 217.319,83.848 217.480 M116.504 217.480 C 119.458 217.546,124.292 217.546,127.246 217.480 C 130.200 217.413,127.783 217.359,121.875 217.359 C 115.967 217.359,113.550 217.413,116.504 217.480 M170.567 217.480 C 170.468 217.642,173.489 217.728,177.283 217.673 C 190.019 217.489,191.283 217.350,180.980 217.269 C 175.353 217.224,170.667 217.319,170.567 217.480 M250.098 217.475 C 251.118 217.555,252.788 217.555,253.809 217.475 C 254.829 217.394,253.994 217.328,251.953 217.328 C 249.912 217.328,249.077 217.394,250.098 217.475 M291.270 217.480 C 291.170 217.642,292.170 217.724,293.493 217.664 C 297.537 217.480,298.016 217.308,294.652 217.246 C 292.892 217.214,291.370 217.319,291.270 217.480 M334.082 217.477 C 335.532 217.552,337.905 217.552,339.355 217.477 C 340.806 217.402,339.619 217.341,336.719 217.341 C 333.818 217.341,332.632 217.402,334.082 217.477 M342.485 248.501 C 342.563 272.219,342.478 279.672,342.132 279.458 C 341.846 279.281,341.781 279.346,341.959 279.634 C 342.114 279.885,342.405 279.990,342.605 279.866 C 343.042 279.596,343.112 217.713,342.676 217.443 C 342.515 217.343,342.429 231.319,342.485 248.501 M83.684 219.531 C 83.684 220.283,83.765 220.591,83.863 220.215 C 83.961 219.839,83.961 219.224,83.863 218.848 C 83.765 218.472,83.684 218.779,83.684 219.531 M170.481 228.125 C 170.481 233.389,170.537 235.542,170.604 232.910 C 170.672 230.278,170.672 225.972,170.604 223.340 C 170.537 220.708,170.481 222.861,170.481 228.125 M83.767 240.039 C 83.767 246.699,83.821 249.479,83.886 246.216 C 83.951 242.953,83.951 237.504,83.886 234.106 C 83.821 230.709,83.768 233.379,83.767 240.039 M312.305 232.422 C 313.580 233.711,314.712 234.766,314.819 234.766 C 314.927 234.766,313.971 233.711,312.695 232.422 C 311.420 231.133,310.288 230.078,310.181 230.078 C 310.073 230.078,311.029 231.133,312.305 232.422 M123.204 237.891 C 123.204 241.221,123.264 242.583,123.337 240.918 C 123.410 239.253,123.410 236.528,123.337 234.863 C 123.264 233.198,123.204 234.561,123.204 237.891 M125.938 250.391 C 125.938 253.721,125.998 255.083,126.072 253.418 C 126.145 251.753,126.145 249.028,126.072 247.363 C 125.998 245.698,125.938 247.061,125.938 250.391 M293.066 245.597 C 293.872 245.681,295.190 245.681,295.996 245.597 C 296.802 245.513,296.143 245.444,294.531 245.444 C 292.920 245.444,292.261 245.513,293.066 245.597 M302.225 249.863 C 302.894 250.008,303.117 250.387,303.240 251.590 L 303.397 253.131 303.359 251.468 C 303.324 249.983,303.216 249.798,302.344 249.741 C 301.525 249.687,301.506 249.707,302.225 249.863 M303.261 259.375 C 303.261 261.201,303.329 261.948,303.411 261.035 C 303.493 260.122,303.493 258.628,303.411 257.715 C 303.329 256.802,303.261 257.549,303.261 259.375 M123.172 260.156 C 123.172 261.553,123.243 262.124,123.329 261.426 C 123.416 260.728,123.416 259.585,123.329 258.887 C 123.243 258.188,123.172 258.760,123.172 260.156 M325.977 263.281 C 327.252 264.570,328.384 265.625,328.491 265.625 C 328.599 265.625,327.643 264.570,326.367 263.281 C 325.092 261.992,323.960 260.938,323.853 260.938 C 323.745 260.938,324.701 261.992,325.977 263.281 M241.645 262.820 C 241.536 262.996,241.966 263.064,242.599 262.971 C 243.232 262.878,243.750 262.734,243.750 262.651 C 243.750 262.353,241.839 262.507,241.645 262.820 M149.023 265.234 C 149.863 266.094,150.637 266.797,150.744 266.797 C 150.852 266.797,150.253 266.094,149.414 265.234 C 148.575 264.375,147.800 263.672,147.693 263.672 C 147.586 263.672,148.184 264.375,149.023 265.234 M141.797 274.023 C 142.964 275.205,144.007 276.172,144.114 276.172 C 144.221 276.172,143.354 275.205,142.188 274.023 C 141.021 272.842,139.978 271.875,139.870 271.875 C 139.763 271.875,140.630 272.842,141.797 274.023 M141.566 300.195 C 141.566 303.848,141.624 305.394,141.697 303.632 C 141.769 301.871,141.769 298.882,141.697 296.992 C 141.626 295.101,141.567 296.543,141.566 300.195 M145.028 295.703 C 145.028 296.670,145.104 297.065,145.198 296.582 C 145.291 296.099,145.291 295.308,145.198 294.824 C 145.104 294.341,145.028 294.736,145.028 295.703 M129.822 297.478 C 129.695 297.809,129.701 298.190,129.835 298.324 C 129.969 298.458,130.078 298.288,130.078 297.945 C 130.078 297.603,130.386 297.243,130.762 297.144 C 131.402 296.977,131.402 296.963,130.749 296.920 C 130.367 296.895,129.950 297.146,129.822 297.478 M129.824 303.125 C 129.824 304.951,129.891 305.698,129.974 304.785 C 130.056 303.872,130.056 302.378,129.974 301.465 C 129.891 300.552,129.824 301.299,129.824 303.125 M224.716 302.734 C 224.716 303.701,224.792 304.097,224.885 303.613 C 224.978 303.130,224.978 302.339,224.885 301.855 C 224.792 301.372,224.716 301.768,224.716 302.734 M186.419 304.297 C 186.419 305.049,186.499 305.356,186.597 304.980 C 186.696 304.604,186.696 303.989,186.597 303.613 C 186.499 303.237,186.419 303.545,186.419 304.297 M166.957 304.444 C 166.843 304.740,166.817 305.839,166.898 306.886 L 167.047 308.789 167.117 306.572 C 167.173 304.825,167.333 304.316,167.871 304.176 C 168.512 304.008,168.511 303.994,167.859 303.952 C 167.476 303.927,167.070 304.148,166.957 304.444 " stroke="none" fill="#716f70" fill-rule="evenodd"></path><path id="path3" d="M148.536 100.586 C 148.540 101.445,148.620 101.751,148.714 101.265 C 148.807 100.779,148.804 100.076,148.706 99.702 C 148.608 99.329,148.532 99.727,148.536 100.586 M148.563 139.844 C 148.563 141.240,148.633 141.812,148.720 141.113 C 148.807 140.415,148.807 139.272,148.720 138.574 C 148.633 137.876,148.563 138.447,148.563 139.844 M148.536 145.508 C 148.540 146.367,148.620 146.673,148.714 146.187 C 148.807 145.701,148.804 144.998,148.706 144.624 C 148.608 144.251,148.532 144.648,148.536 145.508 M60.653 220.313 C 60.653 221.279,60.729 221.675,60.823 221.191 C 60.916 220.708,60.916 219.917,60.823 219.434 C 60.729 218.950,60.653 219.346,60.653 220.313 M308.398 228.516 C 309.238 229.375,310.012 230.078,310.119 230.078 C 310.227 230.078,309.628 229.375,308.789 228.516 C 307.950 227.656,307.175 226.953,307.068 226.953 C 306.961 226.953,307.559 227.656,308.398 228.516 M60.697 242.188 C 60.697 244.873,60.760 245.972,60.836 244.629 C 60.912 243.286,60.912 241.089,60.836 239.746 C 60.760 238.403,60.697 239.502,60.697 242.188 M170.441 240.039 C 170.442 241.543,170.513 242.110,170.598 241.300 C 170.682 240.489,170.681 239.259,170.594 238.566 C 170.508 237.872,170.439 238.535,170.441 240.039 M170.467 260.352 C 170.467 263.359,170.529 264.538,170.603 262.971 C 170.677 261.404,170.677 258.943,170.602 257.502 C 170.527 256.062,170.466 257.344,170.467 260.352 M241.922 297.656 C 241.922 299.053,241.993 299.624,242.079 298.926 C 242.166 298.228,242.166 297.085,242.079 296.387 C 241.993 295.688,241.922 296.260,241.922 297.656 M163.426 299.609 C 163.426 301.865,163.490 302.788,163.569 301.660 C 163.648 300.532,163.648 298.687,163.569 297.559 C 163.490 296.431,163.426 297.354,163.426 299.609 " stroke="none" fill="#8c8c8c" fill-rule="evenodd"></path><path id="path4" d="M163.856 124.023 C 163.856 138.418,163.905 144.250,163.965 136.983 C 164.024 129.717,164.024 117.939,163.965 110.811 C 163.905 103.683,163.856 109.629,163.856 124.023 M244.322 117.969 C 244.322 128.818,244.372 133.257,244.433 127.832 C 244.495 122.407,244.495 113.530,244.433 108.105 C 244.372 102.681,244.322 107.119,244.322 117.969 M194.622 130.078 C 194.622 130.830,194.702 131.138,194.801 130.762 C 194.899 130.386,194.899 129.771,194.801 129.395 C 194.702 129.019,194.622 129.326,194.622 130.078 M148.544 135.938 C 148.544 136.904,148.620 137.300,148.713 136.816 C 148.806 136.333,148.806 135.542,148.713 135.059 C 148.620 134.575,148.544 134.971,148.544 135.938 M244.290 147.852 C 244.291 150.430,244.354 151.434,244.430 150.082 C 244.507 148.731,244.506 146.622,244.429 145.395 C 244.352 144.168,244.289 145.273,244.290 147.852 M190.398 185.938 C 190.398 190.127,190.455 191.841,190.526 189.746 C 190.596 187.651,190.596 184.224,190.526 182.129 C 190.455 180.034,190.398 181.748,190.398 185.938 M202.078 190.625 C 202.078 192.021,202.149 192.593,202.236 191.895 C 202.322 191.196,202.322 190.054,202.236 189.355 C 202.149 188.657,202.078 189.229,202.078 190.625 M194.691 203.320 C 194.691 206.973,194.749 208.519,194.822 206.757 C 194.894 204.996,194.894 202.007,194.822 200.117 C 194.751 198.226,194.692 199.668,194.691 203.320 M111.111 229.102 C 111.110 235.547,111.164 238.238,111.229 235.083 C 111.295 231.927,111.295 226.654,111.230 223.364 C 111.164 220.074,111.111 222.656,111.111 229.102 M60.712 229.688 C 60.712 234.092,60.769 235.894,60.838 233.691 C 60.908 231.489,60.908 227.886,60.838 225.684 C 60.769 223.481,60.712 225.283,60.712 229.688 M125.308 229.196 C 126.659 229.272,128.769 229.272,129.996 229.194 C 131.223 229.117,130.117 229.055,127.539 229.055 C 124.961 229.056,123.957 229.119,125.308 229.196 M185.254 229.191 C 186.060 229.275,187.378 229.275,188.184 229.191 C 188.989 229.107,188.330 229.038,186.719 229.038 C 185.107 229.038,184.448 229.107,185.254 229.191 M322.461 242.969 C 323.300 243.828,324.075 244.531,324.182 244.531 C 324.289 244.531,323.691 243.828,322.852 242.969 C 322.012 242.109,321.238 241.406,321.131 241.406 C 321.023 241.406,321.622 242.109,322.461 242.969 M111.059 245.898 C 111.061 247.187,111.134 247.668,111.221 246.966 C 111.308 246.264,111.306 245.209,111.217 244.622 C 111.127 244.035,111.056 244.609,111.059 245.898 M60.653 248.438 C 60.653 249.404,60.729 249.800,60.823 249.316 C 60.916 248.833,60.916 248.042,60.823 247.559 C 60.729 247.075,60.653 247.471,60.653 248.438 M292.472 249.891 C 293.165 249.978,294.396 249.979,295.206 249.894 C 296.017 249.810,295.449 249.739,293.945 249.738 C 292.441 249.736,291.778 249.805,292.472 249.891 M297.559 249.885 C 298.042 249.978,298.833 249.978,299.316 249.885 C 299.800 249.792,299.404 249.716,298.438 249.716 C 297.471 249.716,297.075 249.792,297.559 249.885 M60.638 251.563 C 60.638 252.314,60.718 252.622,60.816 252.246 C 60.914 251.870,60.914 251.255,60.816 250.879 C 60.718 250.503,60.638 250.811,60.638 251.563 M170.424 253.320 C 170.427 254.395,170.503 254.788,170.593 254.194 C 170.683 253.600,170.680 252.721,170.587 252.241 C 170.495 251.760,170.421 252.246,170.424 253.320 M95.794 253.516 C 95.794 254.268,95.874 254.575,95.972 254.199 C 96.071 253.823,96.071 253.208,95.972 252.832 C 95.874 252.456,95.794 252.764,95.794 253.516 M142.773 258.984 C 144.914 261.133,146.753 262.891,146.860 262.891 C 146.968 262.891,145.304 261.133,143.164 258.984 C 141.024 256.836,139.185 255.078,139.077 255.078 C 138.970 255.078,140.633 256.836,142.773 258.984 M319.531 256.445 C 320.260 257.197,320.944 257.813,321.052 257.813 C 321.159 257.813,320.651 257.197,319.922 256.445 C 319.193 255.693,318.509 255.078,318.401 255.078 C 318.294 255.078,318.802 255.693,319.531 256.445 M187.223 264.353 C 188.682 264.428,190.968 264.427,192.301 264.351 C 193.635 264.275,192.441 264.214,189.648 264.214 C 186.855 264.215,185.764 264.277,187.223 264.353 M111.080 269.336 C 111.081 271.484,111.147 272.313,111.226 271.178 C 111.305 270.043,111.304 268.285,111.224 267.272 C 111.144 266.259,111.079 267.188,111.080 269.336 M170.449 268.750 C 170.449 270.576,170.516 271.323,170.599 270.410 C 170.681 269.497,170.681 268.003,170.599 267.090 C 170.516 266.177,170.449 266.924,170.449 268.750 M111.061 274.023 C 111.130 274.705,111.440 274.809,113.480 274.840 L 115.820 274.875 113.599 274.723 C 111.931 274.610,111.329 274.406,111.180 273.907 C 111.035 273.420,111.003 273.451,111.061 274.023 M338.867 276.563 C 340.360 278.066,341.669 279.297,341.776 279.297 C 341.883 279.297,340.750 278.066,339.258 276.563 C 337.765 275.059,336.456 273.828,336.349 273.828 C 336.242 273.828,337.375 275.059,338.867 276.563 M266.361 274.722 C 266.531 274.891,268.413 274.978,270.542 274.915 L 274.414 274.800 270.233 274.607 C 267.933 274.501,266.191 274.553,266.361 274.722 M117.485 274.886 C 117.971 274.979,118.674 274.976,119.048 274.878 C 119.421 274.780,119.023 274.704,118.164 274.708 C 117.305 274.712,116.999 274.792,117.485 274.886 M174.297 274.900 C 176.166 274.971,179.330 274.972,181.328 274.901 C 183.326 274.830,181.797 274.771,177.930 274.771 C 174.063 274.770,172.428 274.828,174.297 274.900 M186.816 274.879 C 187.192 274.977,187.808 274.977,188.184 274.879 C 188.560 274.780,188.252 274.700,187.500 274.700 C 186.748 274.700,186.440 274.780,186.816 274.879 M230.176 274.894 C 230.981 274.978,232.300 274.978,233.105 274.894 C 233.911 274.810,233.252 274.741,231.641 274.741 C 230.029 274.741,229.370 274.810,230.176 274.894 M182.919 295.313 C 182.919 296.279,182.995 296.675,183.088 296.191 C 183.181 295.708,183.181 294.917,183.088 294.434 C 182.995 293.950,182.919 294.346,182.919 295.313 M245.403 299.219 C 245.403 299.971,245.484 300.278,245.582 299.902 C 245.680 299.526,245.680 298.911,245.582 298.535 C 245.484 298.159,245.403 298.467,245.403 299.219 M241.973 304.492 L 241.992 308.789 244.922 308.814 L 247.852 308.838 245.032 308.700 L 242.213 308.561 242.083 304.378 L 241.954 300.195 241.973 304.492 M182.941 304.492 C 182.942 305.996,183.013 306.563,183.098 305.753 C 183.182 304.943,183.181 303.712,183.094 303.019 C 183.008 302.325,182.939 302.988,182.941 304.492 M126.270 304.492 C 126.275 305.352,126.355 305.657,126.448 305.171 C 126.542 304.685,126.538 303.982,126.440 303.609 C 126.342 303.235,126.266 303.633,126.270 304.492 M163.393 306.055 C 163.396 307.129,163.472 307.522,163.562 306.928 C 163.651 306.334,163.649 305.456,163.556 304.975 C 163.464 304.495,163.390 304.980,163.393 306.055 M193.031 306.921 L 192.969 308.568 188.574 308.693 L 184.180 308.817 188.586 308.901 C 193.441 308.993,193.544 308.942,193.254 306.580 C 193.108 305.392,193.088 305.423,193.031 306.921 M206.144 305.751 C 206.837 305.837,208.068 305.838,208.878 305.754 C 209.688 305.669,209.121 305.599,207.617 305.597 C 206.113 305.595,205.450 305.664,206.144 305.751 M129.718 307.715 C 129.685 308.661,126.864 309.071,126.429 308.193 C 126.320 307.973,126.275 308.017,126.329 308.291 C 126.480 309.052,129.638 309.178,129.923 308.434 C 130.049 308.106,130.061 307.613,129.950 307.337 C 129.840 307.061,129.735 307.231,129.718 307.715 M142.480 308.869 C 142.964 308.963,143.755 308.963,144.238 308.869 C 144.722 308.776,144.326 308.700,143.359 308.700 C 142.393 308.700,141.997 308.776,142.480 308.869 M212.598 308.863 C 212.974 308.961,213.589 308.961,213.965 308.863 C 214.341 308.765,214.033 308.684,213.281 308.684 C 212.529 308.684,212.222 308.765,212.598 308.863 M221.582 308.863 C 221.958 308.961,222.573 308.961,222.949 308.863 C 223.325 308.765,223.018 308.684,222.266 308.684 C 221.514 308.684,221.206 308.765,221.582 308.863 " stroke="none" fill="#948c92" fill-rule="evenodd"></path></g></svg>