<?xml version="1.0" encoding="UTF-8"?>
<!DOCTYPE svg PUBLIC "-//W3C//DTD SVG 1.1//EN" "http://www.w3.org/Graphics/SVG/1.1/DTD/svg11.dtd">
<svg xmlns="http://www.w3.org/2000/svg" version="1.1"  style="shape-rendering:geometricPrecision; text-rendering:geometricPrecision; image-rendering:optimizeQuality; fill-rule:evenodd; clip-rule:evenodd" xmlns:xlink="http://www.w3.org/1999/xlink">
<g><path style="opacity:1" fill="#222021" d="M 56.5,-0.5 C 62.1667,-0.5 67.8333,-0.5 73.5,-0.5C 74.2625,0.26791 75.2625,0.76791 76.5,1C 75.7438,4.27313 74.4105,7.27313 72.5,10C 72.8333,10.3333 73.1667,10.6667 73.5,11C 71.992,12.5067 70.6587,14.1733 69.5,16C 72.3323,17.9076 71.999,18.741 68.5,18.5C 67.551,20.7373 66.8844,23.0706 66.5,25.5C 65.5,25.5 64.5,25.5 63.5,25.5C 63.8633,27.9115 62.8633,29.4115 60.5,30C 63.1667,30.6667 63.1667,31.3333 60.5,32C 61.624,32.2492 62.624,32.7492 63.5,33.5C 62.3493,34.731 61.1827,34.731 60,33.5C 59.6667,34.8333 59.3333,36.1667 59,37.5C 58.6667,37.1667 58.3333,36.8333 58,36.5C 57.5,38.3333 56.3333,39.5 54.5,40C 55.8676,42.8044 56.8676,45.6377 57.5,48.5C 58.5,48.5 59.5,48.5 60.5,48.5C 60.5,48.8333 60.5,49.1667 60.5,49.5C 59.5,49.5 58.5,49.5 57.5,49.5C 56.609,50.1098 55.609,50.4431 54.5,50.5C 53.2048,47.6366 51.5382,44.97 49.5,42.5C 47.576,46.0171 45.9094,49.6837 44.5,53.5C 45,53.8333 45.5,54.1667 46,54.5C 47.2197,53.6119 48.5531,52.9452 50,52.5C 51.8001,53.3784 53.6334,54.045 55.5,54.5C 54.5707,55.3149 53.5707,56.1482 52.5,57C 53.756,57.4169 54.4226,58.2502 54.5,59.5C 52.7973,58.3398 52.1307,59.0065 52.5,61.5C 51.8333,61.1667 51.1667,60.8333 50.5,60.5C 50.5,58.5 49.5,57.5 47.5,57.5C 46.8333,57.5 46.5,57.8333 46.5,58.5C 45.3478,57.375 44.3478,57.375 43.5,58.5C 42.8333,58.5 42.5,58.8333 42.5,59.5C 41.8333,59.5 41.5,59.1667 41.5,58.5C 40.1667,56.8333 40.1667,55.1667 41.5,53.5C 42.258,50.0508 41.9247,46.7175 40.5,43.5C 40.5,42.8333 40.1667,42.5 39.5,42.5C 39.238,41.0222 39.5713,39.6888 40.5,38.5C 41.4255,37.3595 42.2588,37.3595 43,38.5C 44.0386,37.7562 44.5386,36.7562 44.5,35.5C 45.1667,35.8333 45.8333,36.1667 46.5,36.5C 48.2986,30.684 48.9653,24.684 48.5,18.5C 47.5,18.5 46.5,18.5 45.5,18.5C 46.3984,17.8423 47.3984,17.1757 48.5,16.5C 47.3913,15.0353 47.8913,14.0353 50,13.5C 50.413,10.7679 51.0797,8.10127 52,5.5C 52.4186,6.67209 53.0853,7.67209 54,8.5C 54.7429,6.55942 54.5762,4.72609 53.5,3C 54.6776,2.03305 56.011,1.53305 57.5,1.5C 57.1373,0.816537 56.8039,0.14987 56.5,-0.5 Z"/></g>
<g><path style="opacity:1" fill="#1c1a1b" d="M 73.5,-0.5 C 75.5,-0.5 77.5,-0.5 79.5,-0.5C 79.5,26.1667 79.5,52.8333 79.5,79.5C 52.8333,79.5 26.1667,79.5 -0.5,79.5C -0.5,63.5 -0.5,47.5 -0.5,31.5C -0.0486022,34.8367 1.78473,37.17 5,38.5C 5.33333,38.1667 5.66667,37.8333 6,37.5C 7.86797,39.1832 9.7013,40.8498 11.5,42.5C 10.2227,43.6936 9.55608,45.3603 9.5,47.5C 8.59824,51.5297 10.0982,53.8631 14,54.5C 16.1829,54.4779 17.6829,53.4779 18.5,51.5C 18.89,48.2033 19.89,45.2033 21.5,42.5C 21.1832,46.7016 21.5166,50.7016 22.5,54.5C 22.8333,54.5 23.1667,54.5 23.5,54.5C 24.1667,53.5 24.8333,52.5 25.5,51.5C 26.5,53.1667 27.8333,54.5 29.5,55.5C 31.1789,55.8923 32.8455,56.3923 34.5,57C 31.2751,56.8776 28.1085,57.0442 25,57.5C 23.4574,58.5772 23.4574,59.9106 25,61.5C 25.3768,60.0577 26.2101,59.0577 27.5,58.5C 27.1307,60.9935 27.7973,61.6602 29.5,60.5C 29.8417,61.3382 30.5084,61.6716 31.5,61.5C 33.1788,61.7148 34.1788,61.0481 34.5,59.5C 34.8333,59.5 35.1667,59.5 35.5,59.5C 35.5,60.8333 36.1667,61.5 37.5,61.5C 38.2679,60.7375 38.7679,59.7375 39,58.5C 39.3988,58.7284 39.5654,59.0618 39.5,59.5C 39.369,60.2389 39.5357,60.9056 40,61.5C 40.6667,60.1667 41.3333,60.1667 42,61.5C 42.4643,60.9056 42.631,60.2389 42.5,59.5C 42.5,58.8333 42.8333,58.5 43.5,58.5C 43.5,59.5 43.5,60.5 43.5,61.5C 44.5,61.5 45.5,61.5 46.5,61.5C 46.5,60.5 46.5,59.5 46.5,58.5C 46.5,57.8333 46.8333,57.5 47.5,57.5C 47.5,58.8333 47.5,60.1667 47.5,61.5C 48.791,61.7373 49.791,61.404 50.5,60.5C 51.1667,60.8333 51.8333,61.1667 52.5,61.5C 53.8333,61.5 54.5,60.8333 54.5,59.5C 54.4226,58.2502 53.756,57.4169 52.5,57C 53.5707,56.1482 54.5707,55.3149 55.5,54.5C 54.7659,53.2921 54.4326,51.9587 54.5,50.5C 55.609,50.4431 56.609,50.1098 57.5,49.5C 57.5,51.1667 57.5,52.8333 57.5,54.5C 58.5,54.5 59.5,54.5 60.5,54.5C 60.5,52.8333 60.5,51.1667 60.5,49.5C 60.5,49.1667 60.5,48.8333 60.5,48.5C 62.8333,50.5 65.1667,52.5 67.5,54.5C 68.5018,51.2775 68.8351,47.2775 68.5,42.5C 67.209,42.2627 66.209,42.596 65.5,43.5C 65.6602,45.1992 65.4935,46.8659 65,48.5C 62.9835,46.316 60.8169,44.316 58.5,42.5C 57.5344,44.396 57.2011,46.396 57.5,48.5C 56.8676,45.6377 55.8676,42.8044 54.5,40C 56.3333,39.5 57.5,38.3333 58,36.5C 58.3333,36.8333 58.6667,37.1667 59,37.5C 59.3333,36.1667 59.6667,34.8333 60,33.5C 61.1827,34.731 62.3493,34.731 63.5,33.5C 62.624,32.7492 61.624,32.2492 60.5,32C 63.1667,31.3333 63.1667,30.6667 60.5,30C 62.8633,29.4115 63.8633,27.9115 63.5,25.5C 64.5,25.5 65.5,25.5 66.5,25.5C 66.8844,23.0706 67.551,20.7373 68.5,18.5C 71.999,18.741 72.3323,17.9076 69.5,16C 70.6587,14.1733 71.992,12.5067 73.5,11C 73.1667,10.6667 72.8333,10.3333 72.5,10C 74.4105,7.27313 75.7438,4.27313 76.5,1C 75.2625,0.76791 74.2625,0.26791 73.5,-0.5 Z"/></g>
<g><path style="opacity:1" fill="#ededed" d="M 36.5,34.5 C 37.2341,35.7079 37.5674,37.0413 37.5,38.5C 34.3567,37.8665 31.8567,36.1998 30,33.5C 29.5007,28.5111 29.3341,23.5111 29.5,18.5C 30.5,18.5 31.5,18.5 32.5,18.5C 32.3342,23.1785 32.5008,27.8452 33,32.5C 33.8159,33.8228 34.9826,34.4894 36.5,34.5 Z"/></g>
<g><path style="opacity:1" fill="#eeedee" d="M 45.5,18.5 C 46.5,18.5 47.5,18.5 48.5,18.5C 48.9653,24.684 48.2986,30.684 46.5,36.5C 45.8333,36.1667 45.1667,35.8333 44.5,35.5C 43.4991,34.2113 43.6658,32.8779 45,31.5C 45.499,27.1794 45.6657,22.8461 45.5,18.5 Z"/></g>
<g><path style="opacity:1" fill="#282526" d="M -0.5,-0.5 C 18.5,-0.5 37.5,-0.5 56.5,-0.5C 56.8039,0.14987 57.1373,0.816537 57.5,1.5C 56.011,1.53305 54.6776,2.03305 53.5,3C 54.5762,4.72609 54.7429,6.55942 54,8.5C 53.0853,7.67209 52.4186,6.67209 52,5.5C 51.0797,8.10127 50.413,10.7679 50,13.5C 47.8913,14.0353 47.3913,15.0353 48.5,16.5C 47.3984,17.1757 46.3984,17.8423 45.5,18.5C 45.6657,22.8461 45.499,27.1794 45,31.5C 43.6658,32.8779 43.4991,34.2113 44.5,35.5C 43.4168,35.4606 42.4168,35.1272 41.5,34.5C 39.9954,37.1306 39.3287,36.7973 39.5,33.5C 39.1667,33.5 38.8333,33.5 38.5,33.5C 37.8333,33.8333 37.1667,34.1667 36.5,34.5C 34.9826,34.4894 33.8159,33.8228 33,32.5C 32.5008,27.8452 32.3342,23.1785 32.5,18.5C 31.5,18.5 30.5,18.5 29.5,18.5C 29.3341,23.5111 29.5007,28.5111 30,33.5C 31.8567,36.1998 34.3567,37.8665 37.5,38.5C 37.5,39.8333 37.5,41.1667 37.5,42.5C 35.901,42.2322 34.5676,42.5655 33.5,43.5C 33.2155,45.4147 33.5489,47.0813 34.5,48.5C 33.6586,50.3792 33.3253,52.3792 33.5,54.5C 36.2788,54.7214 38.9455,54.388 41.5,53.5C 40.1667,55.1667 40.1667,56.8333 41.5,58.5C 40.8333,58.8333 40.1667,59.1667 39.5,59.5C 39.5654,59.0618 39.3988,58.7284 39,58.5C 38.7679,59.7375 38.2679,60.7375 37.5,61.5C 37.719,60.325 37.3857,59.325 36.5,58.5C 35.8933,58.6236 35.56,58.9569 35.5,59.5C 35.1667,59.5 34.8333,59.5 34.5,59.5C 33.791,58.596 32.791,58.2627 31.5,58.5C 31.5,59.5 31.5,60.5 31.5,61.5C 30.5084,61.6716 29.8417,61.3382 29.5,60.5C 30.525,60.1034 30.6917,59.4368 30,58.5C 29.2303,59.5981 28.397,59.5981 27.5,58.5C 26.2101,59.0577 25.3768,60.0577 25,61.5C 23.4574,59.9106 23.4574,58.5772 25,57.5C 28.1085,57.0442 31.2751,56.8776 34.5,57C 32.8455,56.3923 31.1789,55.8923 29.5,55.5C 29.6107,54.8826 29.944,54.3826 30.5,54C 27.0022,52.0354 26.6688,49.7021 29.5,47C 29.6134,45.3009 28.9468,44.1342 27.5,43.5C 25.7354,42.5386 23.7354,42.2053 21.5,42.5C 19.89,45.2033 18.89,48.2033 18.5,51.5C 17.991,40.8534 17.1577,40.8534 16,51.5C 14.6667,52.8333 13.3333,52.8333 12,51.5C 11.502,48.5184 11.3354,45.5184 11.5,42.5C 9.7013,40.8498 7.86797,39.1832 6,37.5C 5.66667,37.8333 5.33333,38.1667 5,38.5C 1.78473,37.17 -0.0486022,34.8367 -0.5,31.5C -0.5,20.8333 -0.5,10.1667 -0.5,-0.5 Z"/></g>
<g><path style="opacity:1" fill="#595657" d="M 37.5,20.5 C 38.1599,21.964 38.4932,23.6307 38.5,25.5C 38.4439,27.6397 37.7773,29.3064 36.5,30.5C 35.1201,30.0377 34.4534,29.0377 34.5,27.5C 35.9771,25.361 36.9771,23.0277 37.5,20.5 Z"/></g>
<g><path style="opacity:1" fill="#a5a3a4" d="M 39.5,33.5 C 38.3065,32.7281 37.3065,31.7281 36.5,30.5C 37.7773,29.3064 38.4439,27.6397 38.5,25.5C 38.4932,23.6307 38.1599,21.964 37.5,20.5C 39.9312,19.2591 39.9312,18.0924 37.5,17C 38.448,16.5172 39.448,16.3505 40.5,16.5C 38.3414,22.0638 39.3414,26.8972 43.5,31C 41.8866,31.0885 40.7199,30.2552 40,28.5C 39.1349,30.8878 39.9683,32.3878 42.5,33C 41.552,33.4828 40.552,33.6495 39.5,33.5 Z"/></g>
<g><path style="opacity:1" fill="#585758" d="M 38.5,33.5 C 38.19,36.7131 38.5233,39.7131 39.5,42.5C 40.1667,42.5 40.5,42.8333 40.5,43.5C 38.1667,43.5 35.8333,43.5 33.5,43.5C 34.5676,42.5655 35.901,42.2322 37.5,42.5C 37.5,41.1667 37.5,39.8333 37.5,38.5C 37.5674,37.0413 37.2341,35.7079 36.5,34.5C 37.1667,34.1667 37.8333,33.8333 38.5,33.5 Z"/></g>
<g><path style="opacity:1" fill="#a5a4a5" d="M 38.5,33.5 C 38.8333,33.5 39.1667,33.5 39.5,33.5C 39.3287,36.7973 39.9954,37.1306 41.5,34.5C 42.4168,35.1272 43.4168,35.4606 44.5,35.5C 44.5386,36.7562 44.0386,37.7562 43,38.5C 42.2588,37.3595 41.4255,37.3595 40.5,38.5C 39.5713,39.6888 39.238,41.0222 39.5,42.5C 38.5233,39.7131 38.19,36.7131 38.5,33.5 Z"/></g>
<g><path style="opacity:1" fill="#a2a0a1" d="M 46.5,36.5 C 48.2726,37.3143 48.7726,38.6476 48,40.5C 47.2086,39.255 46.7086,37.9217 46.5,36.5 Z"/></g>
<g><path style="opacity:1" fill="#f3f2f2" d="M 11.5,42.5 C 11.3354,45.5184 11.502,48.5184 12,51.5C 13.3333,52.8333 14.6667,52.8333 16,51.5C 17.1577,40.8534 17.991,40.8534 18.5,51.5C 17.6829,53.4779 16.1829,54.4779 14,54.5C 10.0982,53.8631 8.59824,51.5297 9.5,47.5C 9.55608,45.3603 10.2227,43.6936 11.5,42.5 Z"/></g>
<g><path style="opacity:1" fill="#f3f3f3" d="M 27.5,43.5 C 28.9468,44.1342 29.6134,45.3009 29.5,47C 26.6688,49.7021 27.0022,52.0354 30.5,54C 29.944,54.3826 29.6107,54.8826 29.5,55.5C 27.8333,54.5 26.5,53.1667 25.5,51.5C 25.5,50.5 25.5,49.5 25.5,48.5C 27.0481,48.1788 27.7148,47.1788 27.5,45.5C 26.5,45.5 25.5,45.5 24.5,45.5C 23.5233,48.2869 23.19,51.2869 23.5,54.5C 23.1667,54.5 22.8333,54.5 22.5,54.5C 22.5,50.8333 22.5,47.1667 22.5,43.5C 24.1667,43.5 25.8333,43.5 27.5,43.5 Z"/></g>
<g><path style="opacity:1" fill="#b5b3b4" d="M 21.5,42.5 C 23.7354,42.2053 25.7354,42.5386 27.5,43.5C 25.8333,43.5 24.1667,43.5 22.5,43.5C 22.5,47.1667 22.5,50.8333 22.5,54.5C 21.5166,50.7016 21.1832,46.7016 21.5,42.5 Z"/></g>
<g><path style="opacity:1" fill="#dadada" d="M 65.5,43.5 C 67.4136,46.6843 68.0803,50.351 67.5,54.5C 65.1667,52.5 62.8333,50.5 60.5,48.5C 59.5,48.5 58.5,48.5 57.5,48.5C 57.2011,46.396 57.5344,44.396 58.5,42.5C 60.8169,44.316 62.9835,46.316 65,48.5C 65.4935,46.8659 65.6602,45.1992 65.5,43.5 Z"/></g>
<g><path style="opacity:1" fill="#292728" d="M 24.5,45.5 C 25.5,45.5 26.5,45.5 27.5,45.5C 27.7148,47.1788 27.0481,48.1788 25.5,48.5C 24.596,47.791 24.2627,46.791 24.5,45.5 Z"/></g>
<g><path style="opacity:1" fill="#8d8b8c" d="M 65.5,43.5 C 66.209,42.596 67.209,42.2627 68.5,42.5C 68.8351,47.2775 68.5018,51.2775 67.5,54.5C 68.0803,50.351 67.4136,46.6843 65.5,43.5 Z"/></g>
<g><path style="opacity:1" fill="#a2a0a1" d="M 24.5,45.5 C 24.2627,46.791 24.596,47.791 25.5,48.5C 25.5,49.5 25.5,50.5 25.5,51.5C 24.8333,52.5 24.1667,53.5 23.5,54.5C 23.19,51.2869 23.5233,48.2869 24.5,45.5 Z"/></g>
<g><path style="opacity:1" fill="#e4e4e4" d="M 33.5,43.5 C 35.8333,43.5 38.1667,43.5 40.5,43.5C 41.9247,46.7175 42.258,50.0508 41.5,53.5C 38.9455,54.388 36.2788,54.7214 33.5,54.5C 33.3253,52.3792 33.6586,50.3792 34.5,48.5C 33.5489,47.0813 33.2155,45.4147 33.5,43.5 Z"/></g>
<g><path style="opacity:1" fill="#494748" d="M 34.5,48.5 C 35.4245,45.8687 37.0912,45.2021 39.5,46.5C 37.9783,47.562 36.3117,48.2287 34.5,48.5 Z"/></g>
<g><path style="opacity:1" fill="#d7d7d7" d="M 54.5,50.5 C 54.4326,51.9587 54.7659,53.2921 55.5,54.5C 53.6334,54.045 51.8001,53.3784 50,52.5C 48.5531,52.9452 47.2197,53.6119 46,54.5C 45.5,54.1667 45,53.8333 44.5,53.5C 45.9094,49.6837 47.576,46.0171 49.5,42.5C 51.5382,44.97 53.2048,47.6366 54.5,50.5 Z"/></g>
<g><path style="opacity:1" fill="#c0bfc0" d="M 57.5,49.5 C 58.5,49.5 59.5,49.5 60.5,49.5C 60.5,51.1667 60.5,52.8333 60.5,54.5C 59.5,54.5 58.5,54.5 57.5,54.5C 57.5,52.8333 57.5,51.1667 57.5,49.5 Z"/></g>
<g><path style="opacity:1" fill="#363535" d="M 36.5,50.5 C 37.675,50.281 38.675,50.6143 39.5,51.5C 37.9483,52.7979 36.9483,52.4646 36.5,50.5 Z"/></g>
<g><path style="opacity:1" fill="#aaa8aa" d="M 27.5,58.5 C 28.397,59.5981 29.2303,59.5981 30,58.5C 30.6917,59.4368 30.525,60.1034 29.5,60.5C 27.7973,61.6602 27.1307,60.9935 27.5,58.5 Z"/></g>
<g><path style="opacity:1" fill="#aba9aa" d="M 37.5,61.5 C 36.1667,61.5 35.5,60.8333 35.5,59.5C 35.56,58.9569 35.8933,58.6236 36.5,58.5C 37.3857,59.325 37.719,60.325 37.5,61.5 Z"/></g>
<g><path style="opacity:1" fill="#9c9a9b" d="M 46.5,58.5 C 46.5,59.5 46.5,60.5 46.5,61.5C 45.5,61.5 44.5,61.5 43.5,61.5C 43.5,60.5 43.5,59.5 43.5,58.5C 44.3478,57.375 45.3478,57.375 46.5,58.5 Z"/></g>
<g><path style="opacity:1" fill="#8b898a" d="M 47.5,57.5 C 49.5,57.5 50.5,58.5 50.5,60.5C 49.791,61.404 48.791,61.7373 47.5,61.5C 47.5,60.1667 47.5,58.8333 47.5,57.5 Z"/></g>
<g><path style="opacity:1" fill="#878586" d="M 34.5,59.5 C 34.1788,61.0481 33.1788,61.7148 31.5,61.5C 31.5,60.5 31.5,59.5 31.5,58.5C 32.791,58.2627 33.791,58.596 34.5,59.5 Z"/></g>
<g><path style="opacity:1" fill="#a8a7a8" d="M 41.5,58.5 C 41.5,59.1667 41.8333,59.5 42.5,59.5C 42.631,60.2389 42.4643,60.9056 42,61.5C 41.3333,60.1667 40.6667,60.1667 40,61.5C 39.5357,60.9056 39.369,60.2389 39.5,59.5C 40.1667,59.1667 40.8333,58.8333 41.5,58.5 Z"/></g>
<g><path style="opacity:1" fill="#8f8d8e" d="M 54.5,59.5 C 54.5,60.8333 53.8333,61.5 52.5,61.5C 52.1307,59.0065 52.7973,58.3398 54.5,59.5 Z"/></g>
</svg>
