<?xml version="1.0" standalone="no"?>
<!DOCTYPE svg PUBLIC "-//W3C//DTD SVG 20010904//EN"
 "http://www.w3.org/TR/2001/REC-SVG-20010904/DTD/svg10.dtd">
<svg version="1.0" xmlns="http://www.w3.org/2000/svg"
 width="868.000000pt" height="669.000000pt" viewBox="0 0 868.000000 669.000000"
 preserveAspectRatio="xMidYMid meet">
<metadata>
Created by potrace 1.16, written by Peter Selinger 2001-2019
</metadata>
<g transform="translate(0.000000,669.000000) scale(0.100000,-0.100000)"
fill="#000000" stroke="none">
<path d="M3835 6364 c-322 -24 -547 -67 -805 -153 -437 -146 -836 -395 -1170
-730 -159 -159 -266 -290 -387 -474 -267 -402 -435 -875 -483 -1362 -14 -138
-14 -470 -1 -595 67 -598 284 -1128 655 -1595 105 -132 345 -370 476 -472 457
-354 953 -559 1525 -630 177 -22 536 -21 710 1 354 45 644 132 960 286 315
154 546 319 806 579 260 260 425 491 579 806 195 400 290 780 306 1235 29 779
-260 1552 -801 2140 -489 533 -1142 861 -1892 950 -93 11 -401 20 -478 14z
m571 -68 c635 -97 1195 -370 1644 -803 595 -573 911 -1314 912 -2138 1 -521
-116 -988 -359 -1428 -450 -818 -1248 -1377 -2169 -1517 -178 -28 -538 -38
-721 -21 -1073 101 -2031 797 -2452 1783 -174 407 -251 817 -238 1268 22 770
322 1466 866 2011 470 469 1095 776 1731 848 52 6 109 13 125 15 73 10 565 -3
661 -18z"/>
<path d="M3770 6239 c-1114 -91 -2072 -800 -2475 -1832 -202 -519 -251 -1100
-139 -1646 167 -811 676 -1509 1409 -1931 525 -303 1174 -431 1785 -354 515
65 996 263 1412 581 134 102 358 320 470 456 335 410 547 892 629 1437 32 209
32 591 0 800 -82 545 -294 1027 -630 1437 -113 138 -336 355 -469 456 -361
275 -786 468 -1217 551 -227 44 -556 63 -775 45z m145 -2304 c31 -30 31 -52 3
-82 -21 -22 -21 -25 -7 -85 l15 -63 34 55 c19 30 33 64 32 77 -4 29 30 49 48
28 14 -17 4 -55 -14 -55 -13 0 -86 -101 -86 -118 0 -5 48 -39 106 -75 90 -58
108 -66 126 -56 45 24 96 -34 62 -72 -30 -33 -61 -22 -89 34 -13 27 -205 151
-205 133 0 -8 12 -63 26 -123 20 -85 31 -112 50 -126 41 -32 27 -87 -23 -87
-35 0 -51 41 -29 74 15 24 15 32 -10 133 -14 60 -28 114 -30 122 -5 16 -47
-39 -64 -84 -6 -17 -16 -25 -27 -23 -25 5 -27 27 -4 36 16 6 81 91 81 106 0
10 -105 70 -133 75 -37 8 -48 38 -22 57 24 18 59 0 52 -27 -4 -14 7 -26 45
-49 28 -17 52 -30 53 -28 2 2 -2 27 -9 56 -8 35 -19 58 -31 64 -48 25 -59 74
-25 108 26 26 46 25 75 -5z m-1045 -965 c0 -117 -2 -215 -5 -218 -2 -2 -11 -2
-20 1 -13 6 -15 37 -15 222 l0 215 -22 1 c-18 1 -17 3 7 8 54 13 56 5 55 -229z
m1331 136 c0 -50 0 -147 -1 -215 -1 -108 1 -125 17 -137 16 -12 12 -13 -37
-13 -42 0 -51 2 -37 10 15 9 17 31 17 224 l0 215 -22 1 c-18 1 -17 3 7 8 52
12 55 7 56 -93z m1369 -127 l0 -219 23 -1 22 0 -23 -11 c-16 -8 -28 -8 -45 1
-22 12 -22 13 -20 226 l3 215 -23 1 c-17 1 -16 3 8 8 56 13 55 17 55 -220z
m-3368 44 c-2 -88 1 -163 8 -185 15 -51 52 -78 107 -78 99 0 123 50 123 255 0
141 0 144 -22 148 -13 2 0 4 27 4 28 0 40 -2 28 -4 -23 -4 -23 -7 -23 -159 0
-133 -3 -160 -19 -192 -25 -48 -61 -67 -127 -66 -41 0 -60 6 -88 27 -47 37
-56 73 -56 244 0 126 -2 142 -17 146 -10 3 0 5 22 6 l40 1 -3 -147z m1878 130
c0 -10 3 -29 7 -42 4 -17 3 -22 -5 -17 -7 4 -12 20 -12 37 0 29 -1 29 -55 29
l-55 0 0 -198 c0 -141 3 -201 12 -210 9 -9 0 -12 -42 -11 -43 0 -50 2 -32 9
22 9 22 11 22 210 l0 200 -55 0 -55 0 0 -35 c0 -19 -5 -35 -11 -35 -7 0 -9 9
-5 23 3 12 6 30 6 40 0 15 13 17 140 17 127 0 140 -2 140 -17z m-1454 -133 l6
-30 35 30 c21 19 45 30 63 30 32 0 33 -1 25 -22 -4 -9 -16 -13 -34 -10 -19 3
-37 -4 -59 -23 l-32 -27 0 -100 c0 -84 3 -103 18 -114 15 -12 9 -13 -43 -13
-46 0 -55 2 -37 9 21 9 22 14 22 149 0 137 0 140 -22 144 -14 3 -8 5 15 6 34
1 38 -2 43 -29z m701 6 c27 -24 28 -27 32 -145 3 -116 4 -121 25 -121 17 0 18
-2 6 -10 -22 -14 -46 -12 -64 5 -12 12 -20 13 -35 5 -11 -5 -26 -10 -33 -9 -7
0 4 7 24 16 l38 15 -1 87 c-1 100 -13 156 -35 165 -55 21 -134 -12 -146 -61
-5 -23 -6 -21 -5 11 2 35 6 41 37 52 60 22 125 17 157 -10z m1213 -16 c5 -34
5 -34 20 -14 23 31 62 54 92 54 30 0 31 -1 23 -22 -4 -9 -16 -13 -34 -10 -21
3 -37 -4 -65 -28 l-36 -32 0 -99 c0 -80 3 -99 14 -99 8 0 18 -4 21 -10 4 -6
-15 -10 -52 -9 -32 1 -50 3 -40 6 15 4 17 20 17 148 0 128 -2 144 -17 149 -10
2 -2 4 17 3 32 -2 35 -5 40 -37z m371 30 c25 -14 49 -62 49 -100 l0 -30 -110
0 -110 0 0 -39 c0 -53 35 -102 85 -118 l40 -13 -40 6 c-93 14 -132 65 -122
162 7 62 25 95 70 122 35 22 106 26 138 10z m302 -10 c26 -20 26 -25 29 -143
3 -120 3 -121 28 -127 l25 -6 -27 -7 c-29 -8 -58 0 -58 15 0 5 -10 7 -22 3
-20 -5 -21 -4 -5 5 14 9 17 27 17 118 0 129 -11 152 -68 152 -50 0 -99 -31
-105 -67 -3 -18 -4 -14 -3 12 1 36 4 41 36 52 57 19 124 16 153 -7z m621 14
c11 -4 16 -18 15 -43 -1 -27 -3 -29 -6 -11 -12 69 -111 68 -136 -2 -11 -31 3
-47 61 -68 66 -25 81 -36 93 -67 19 -50 -23 -97 -96 -107 l-40 -6 40 13 c44
14 71 53 60 88 -4 11 -23 27 -43 36 -104 43 -107 45 -110 89 -3 35 1 45 24 63
27 21 101 29 138 15z"/>
<path d="M4787 3012 c-15 -16 -31 -43 -36 -60 l-10 -32 95 0 c72 0 94 3 94 14
0 25 -23 81 -38 94 -28 22 -76 15 -105 -16z"/>
</g>
</svg>
